<?xml version="1.0" standalone="no"?>
<!DOCTYPE svg PUBLIC "-//W3C//DTD SVG 20010904//EN"
 "http://www.w3.org/TR/2001/REC-SVG-20010904/DTD/svg10.dtd">
<svg version="1.0" xmlns="http://www.w3.org/2000/svg"
 width="300.000000pt" height="188.000000pt" viewBox="0 0 300.000000 188.000000"
 preserveAspectRatio="xMidYMid meet">
<metadata>
Created by potrace 1.10, written by Peter Selinger 2001-2011
</metadata>
<g transform="translate(0.000000,188.000000) scale(0.100000,-0.100000)"
fill="#000000" stroke="none">
<path d="M793 1493 c-15 -35 -8 -196 11 -258 27 -91 89 -215 135 -267 23 -25
61 -56 86 -68 37 -18 46 -28 60 -71 42 -126 155 -237 262 -259 64 -14 159 -3
261 28 l61 20 26 -44 c14 -24 29 -44 33 -44 7 0 112 191 112 204 0 9 -203 7
-219 -3 -11 -7 -9 -16 10 -50 12 -22 20 -43 17 -46 -14 -15 -173 -46 -235 -46
-89 -1 -142 22 -208 89 -42 42 -105 149 -105 178 0 7 18 15 40 19 120 20 224
207 164 293 -23 33 -70 54 -105 47 -80 -18 -134 -110 -134 -232 0 -46 -4 -73
-11 -73 -6 0 -29 13 -52 29 -120 88 -223 361 -194 514 10 47 -1 75 -15 40z
m487 -330 c63 -80 -42 -263 -151 -263 -37 0 -37 0 -44 48 -7 50 6 126 30 172
37 72 124 94 165 43z"/>
</g>
</svg>
