<?xml version="1.0" standalone="no"?>
<!DOCTYPE svg PUBLIC "-//W3C//DTD SVG 20010904//EN"
 "http://www.w3.org/TR/2001/REC-SVG-20010904/DTD/svg10.dtd">
<svg version="1.0" xmlns="http://www.w3.org/2000/svg"
 width="300.000000pt" height="188.000000pt" viewBox="0 0 300.000000 188.000000"
 preserveAspectRatio="xMidYMid meet">
<metadata>
Created by potrace 1.10, written by Peter Selinger 2001-2011
</metadata>
<g transform="translate(0.000000,188.000000) scale(0.100000,-0.100000)"
fill="#000000" stroke="none">
<path d="M1487 1444 c-3 -4 0 -19 8 -35 8 -15 15 -30 15 -33 0 -3 -37 -22 -83
-44 -234 -110 -418 -283 -518 -488 -49 -100 -79 -217 -79 -303 1 -72 27 -162
49 -169 11 -4 12 0 6 14 -17 41 -35 120 -35 156 0 20 7 68 15 106 57 273 268
519 570 664 l88 42 16 -21 c9 -11 24 -35 33 -52 9 -17 21 -31 25 -31 13 0 114
180 107 191 -6 10 -207 13 -217 3z"/>
</g>
</svg>
